<svg id="icons" enable-background="new 0 0 64 64" height="512" viewBox="0 0 64 64" width="512" xmlns="http://www.w3.org/2000/svg"><path d="m60 27.5c0 6.9-5.6 12.5-12.5 12.5h-5.22c.48-1.24.75-2.59.75-4v-.01h4.47c6.9 0 12.5-5.59 12.5-12.49z" fill="#ccd1d9"/><path d="m27.03 45.8c1.5.771 3.2 1.2 5 1.2s3.5-.43 5-1.2v3.2l-2 2-3-1-3 1-2-2z" fill="#87bcf4"/><path d="m29.03 51 3-1 3 1 2-2h4c3.311 0 6 2.68 6 6v6c0 1.1-.899 2-2 2h-26c-1.11 0-2-.9-2-2v-6c0-3.32 2.68-6 6-6h4z" fill="#5d9cec"/><path d="m41.03 49h-3.003c3.311 0 6 2.68 6 6v6c0 1.1-.899 2-2 2h3.003c1.101 0 2-.9 2-2v-6c0-3.32-2.689-6-6-6z" fill="#4a89dc"/><path d="m43.03 35.99v.01c0 1.41-.27 2.76-.75 4-.99 2.51-2.87 4.58-5.25 5.8-1.5.771-3.2 1.2-5 1.2s-3.5-.43-5-1.2c-2.39-1.22-4.27-3.28-5.25-5.8-.479-1.24-.75-2.59-.75-4v-.01-3.99l3-3s3.71 2 8 2c4.28 0 8-2 8-2l3 3z" fill="#eac6bb"/><path d="m40.03 29-.003.002v6.988.01c0 1.41-.27 2.76-.75 4-.99 2.51-2.87 4.58-5.25 5.8-1.075.552-2.255.921-3.498 1.09.492.067.991.11 1.501.11 1.8 0 3.5-.43 5-1.2 2.38-1.22 4.26-3.29 5.25-5.8.48-1.24.75-2.59.75-4v-.01-3.99z" fill="#d3b1a9"/><path d="m24.03 29-3 3v-5c0-4.97 4.021-9 9-9h8v4c2.76 0 5 2.24 5 5v5l-3-3s-3.72 2-8 2c-4.29 0-8-2-8-2z" fill="#965353"/><path d="m38.03 25c1.103 0 2 .897 2 2v2l3 3v-5c0-2.76-2.24-5-5-5v-4h-3v4c0 1.657 1.343 3 3 3z" fill="#844747"/><path d="m21.03 36c0 1.41.271 2.76.75 4h-7.78c-5.52 0-10-4.48-10-10v-4c0 5.52 4.48 9.99 10 9.99h7.021.01v.01z" fill="#ccd1d9"/><path d="m15.12 16.02c.971-8.46 8.16-15.02 16.88-15.02 6.891 0 12.83 4.1 15.49 10h.01c6.9 0 12.5 5.59 12.5 12.5 0 6.9-5.6 12.49-12.5 12.49h-4.47v-3.99-5c0-2.76-2.24-5-5-5v-4h-8c-4.979 0-9 4.03-9 9v5 3.99h-.01-7.02c-5.52 0-10-4.47-10-9.99s4.48-10 10-10h1z" fill="#e6e9ed"/><g fill="#87bcf4"><path d="m32.057 56c-.553 0-1.005-.447-1.005-1s.442-1 .994-1h.011c.552 0 1 .447 1 1s-.449 1-1 1z"/><path d="m32.057 60c-.553 0-1.005-.447-1.005-1s.442-1 .994-1h.011c.552 0 1 .447 1 1s-.449 1-1 1z"/></g></svg>